#!OML:ASF F:\VICON\USERDATA\INSTALL\rory3\rory3.ASF
:FULLY-SPECIFIED
:DEGREES
1301
root 2.24329 17.7577 12.6005 -171.772 -8.02234 -182.126
lowerback 3.7683 0.12739 -4.07617
upperback -0.965892 -0.0377455 0.022704
thorax -3.10898 0.055288 2.31284
lowerneck -21.7008 1.5503 -9.55073
upperneck 31.8629 4.35286 0.13422
head 14.4275 0.0823472 2.32354
rclavicle 2.55314e-015 -8.34896e-015
rhumerus -34.0942 -3.83974 -83.2882
rradius 36.1751
rwrist 21.9422
rhand -17.171 -0.59572
rfingers 7.12502
rthumb 9.07034 -30.3807
lclavicle 2.55314e-015 -8.34896e-015
lhumerus -41.4015 41.5406 55.5281
lradius 17.3635
lwrist -20.2583
lhand -13.8241 25.6703
lfingers 7.12502
lthumb 12.2987 55.2886
rfemur -14.3106 0.917283 18.3634
rtibia 32.1414
rfoot -22.553 0.972265
rtoes 4.53264
lfemur -16.9034 -1.56212 -23.3559
ltibia 23.7872
lfoot -13.527 -5.33785
ltoes -1.08368
1302
root 2.25252 17.7567 12.6175 -171.795 -7.88154 -182.126
lowerback 3.72035 0.115383 -4.01778
upperback -0.886519 -0.043905 0.0818897
thorax -2.99925 0.0488054 2.34141
lowerneck -21.8247 1.55921 -9.55972
upperneck 31.799 4.41391 0.0947564
head 14.4244 0.109008 2.32195
rclavicle 2.60035e-014 -2.88238e-015
rhumerus -34.0427 -4.36466 -82.8733
rradius 35.5075
rwrist 22.8628
rhand -16.7367 -1.18047
rfingers 7.12502
rthumb 9.48941 -30.9468
lclavicle 2.60035e-014 -2.88238e-015
lhumerus -43.1414 43.5388 53.8522
lradius 16.413
lwrist -24.0353
lhand -14.0445 25.748
lfingers 7.12502
lthumb 12.0862 55.3789
rfemur -14.0357 1.46172 18.3986
rtibia 31.5325
rfoot -22.8307 0.748093
rtoes 5.59691
lfemur -17.0004 -1.78279 -23.3262
ltibia 23.9257
lfoot -13.5761 -4.92275
ltoes -1.83639
1303
root 2.26029 17.7515 12.6337 -171.819 -7.7473 -182.15
lowerback 3.6853 0.122928 -3.9309
upperback -0.867719 -0.0284507 0.0562427
thorax -2.96097 0.0536419 2.26512
lowerneck -21.7587 1.5941 -9.33029
upperneck 31.7732 4.38556 0.0436792
head 14.4057 0.120784 2.25665
rclavicle 2.93207e-015 -3.37934e-015
rhumerus -34.1524 -5.05555 -82.4969
rradius 34.7637
rwrist 23.4387
rhand -16.1702 -1.33735
rfingers 7.12502
rthumb 10.036 -31.0781
lclavicle 2.93207e-015 -3.37934e-015
lhumerus -44.7722 44.7674 52.483
lradius 15.7544
lwrist -26.7562
lhand -14.448 25.8635
lfingers 7.12502
lthumb 11.6972 55.517
rfemur -13.8603 1.93951 18.4006
rtibia 31.0622
rfoot -23.1634 0.335685
rtoes 4.81594
lfemur -17.0631 -2.0108 -23.3154
ltibia 24.009
lfoot -13.5441 -4.56222
ltoes -2.09489
1304
root 2.2666 17.7508 12.6529 -171.875 -7.60969 -182.135
lowerback 3.7417 0.106986 -3.76656
upperback -0.863862 -0.0439463 0.0508343
thorax -2.98741 0.0435737 2.16831
lowerneck -21.6399 1.67438 -9.16055
upperneck 31.6751 4.436 0.0111345
head 14.3364 0.167388 2.22106
rclavicle -3.60297e-015 -6.95746e-015
rhumerus -34.2768 -5.75965 -82.0628
rradius 33.8974
rwrist 23.711
rhand -16.1961 -0.760056
rfingers 7.12502
rthumb 10.0109 -30.502
lclavicle -3.60297e-015 -6.95746e-015
lhumerus -46.4664 45.7591 51.2458
lradius 15.4119
lwrist -28.5743
lhand -14.6659 25.6591
lfingers 7.12502
lthumb 11.487 55.3244
rfemur -13.7045 2.36702 18.4263
rtibia 30.6946
rfoot -23.2662 -0.00972586
rtoes 3.7995
lfemur -17.1131 -2.12126 -23.2918
ltibia 24.096
lfoot -13.4703 -4.29445
ltoes -2.20094
1305
root 2.27712 17.7549 12.6761 -171.775 -7.10843 -182.139
lowerback 3.71825 0.20101 -3.73812
upperback -0.904319 0.0837637 0.0674796
thorax -3.02432 0.10821 2.16148
lowerneck -21.5744 1.72356 -9.13015
upperneck 31.5689 4.4897 0.0210858
head 14.2713 0.205402 2.22748
rclavicle 7.97623e-015 -5.26779e-015
rhumerus -34.381 -6.29929 -81.6442
rradius 33.1714
rwrist 23.8768
rhand -15.8591 -1.05309
rfingers 7.12502
rthumb 10.3361 -30.7791
lclavicle 7.97623e-015 -5.26779e-015
lhumerus -47.9977 46.4809 50.3379
lradius 15.2705
lwrist -29.5676
lhand -14.7493 25.2708
lfingers 7.12502
lthumb 11.4065 54.9406
rfemur -13.8398 2.88704 18.3627
rtibia 30.5006
rfoot -23.1728 0.00211757
rtoes 3.43916
lfemur -17.2888 -2.05402 -23.3141
ltibia 24.1071
lfoot -13.3096 -3.80827
ltoes -2.27969
1306
root 2.29977 17.7633 12.7019 -171.37 -5.94065 -181.869
lowerback 3.37678 0.543405 -3.78309
upperback -1.04499 0.554128 0.180345
thorax -3.00975 0.346504 2.27495
lowerneck -21.6545 1.72313 -9.11501
upperneck 31.6278 4.47919 0.0681468
head 14.3136 0.205283 2.24449
rclavicle 7.24322e-015 3.37934e-015
rhumerus -34.4795 -6.83577 -81.1899
rradius 32.5228
rwrist 24.0123
rhand -15.1056 -1.6914
rfingers 7.12502
rthumb 11.0629 -31.3798
lclavicle 7.24322e-015 3.37934e-015
lhumerus -49.2708 46.9574 49.7218
lradius 15.1786
lwrist -30.007
lhand -14.9724 24.6892
lfingers 7.12502
lthumb 11.1914 54.3707
rfemur -14.5614 3.73841 18.5021
rtibia 30.42
rfoot -22.7714 0.23437
rtoes 3.47799
lfemur -17.7895 -1.50653 -23.0481
ltibia 24.0901
lfoot -13.1843 -3.16264
ltoes -2.1147
1307
root 2.30044 17.7541 12.7287 -171.717 -6.53035 -182.052
lowerback 3.88982 0.287076 -3.61685
upperback -0.90882 0.200771 0.142281
thorax -3.1329 0.167562 2.16286
lowerneck -21.7935 1.75969 -8.95455
upperneck 31.654 4.51609 0.0164866
head 14.3587 0.23274 2.20664
rclavicle 1.20265e-014 3.77691e-015
rhumerus -34.4884 -7.34688 -80.8397
rradius 31.8429
rwrist 24.1818
rhand -15.061 -1.60583
rfingers 7.12502
rthumb 11.1059 -31.292
lclavicle 1.20265e-014 3.77691e-015
lhumerus -49.8355 46.8164 50.0179
lradius 15.2725
lwrist -29.1689
lhand -15.099 24.3817
lfingers 7.12502
lthumb 11.0693 54.0698
rfemur -14.1553 3.38191 18.4248
rtibia 30.411
rfoot -22.8661 0.0638505
rtoes 3.45501
lfemur -17.4902 -1.92687 -23.1761
ltibia 24.0686
lfoot -12.9947 -3.29112
ltoes -1.39887
